<svg xmlns="http://www.w3.org/2000/svg" xmlns:xlink="http://www.w3.org/1999/xlink" width="259.054" height="74.856" viewBox="0 0 259.054 74.856"><defs><style>.a{fill:none;}.b,.c{fill:#fff;}.b{font-size:20px;font-family:ObjektivMk2-Bold, Objektiv Mk2;font-weight:700;letter-spacing:0.025em;}.d,.e{stroke:none;}.e{fill:#fff;}.f{filter:url(#a);}</style><filter id="a" x="0" y="0" width="259.054" height="74.856" filterUnits="userSpaceOnUse"><feOffset dx="3" dy="3" input="SourceAlpha"/><feGaussianBlur stdDeviation="2" result="b"/><feFlood flood-opacity="0.149"/><feComposite operator="in" in2="b"/><feComposite in="SourceGraphic"/></filter></defs><g transform="translate(-1388.975 -566.357)"><g transform="translate(1379.305 284.357)"><g class="f" transform="matrix(1, 0, 0, 1, 9.67, 282)"><g class="a" transform="translate(3 3)"><path class="d" d="M3.178,0h240.7a3.03,3.03,0,0,1,3.178,2.857V60a3.03,3.03,0,0,1-3.178,2.857H3.178A3.03,3.03,0,0,1,0,60V2.857A3.03,3.03,0,0,1,3.178,0Z"/><path class="e" d="M 3.177520751953125 1.000011444091797 C 1.976837158203125 1.000011444091797 0.9999847412109375 1.833103179931641 0.9999847412109375 2.857105255126953 L 0.9999847412109375 59.99888610839844 C 0.9999847412109375 61.02288436889648 1.976837158203125 61.8559455871582 3.177520751953125 61.8559455871582 L 243.8761749267578 61.8559455871582 C 245.0768585205078 61.8559455871582 246.0537109375 61.02288436889648 246.0537109375 59.99888610839844 L 246.0537109375 2.857105255126953 C 246.0537109375 1.833103179931641 245.0768585205078 1.000011444091797 243.8761749267578 1.000011444091797 L 3.177520751953125 1.000011444091797 M 3.177520751953125 1.1444091796875e-05 L 243.8761749267578 1.1444091796875e-05 C 245.6311187744141 1.1444091796875e-05 247.0537109375 1.279167175292969 247.0537109375 2.857105255126953 L 247.0537109375 59.99888610839844 C 247.0537109375 61.57678985595703 245.6311187744141 62.8559455871582 243.8761749267578 62.8559455871582 L 3.177520751953125 62.8559455871582 C 1.422637939453125 62.8559455871582 -1.52587890625e-05 61.57678985595703 -1.52587890625e-05 59.99888610839844 L -1.52587890625e-05 2.857105255126953 C -1.52587890625e-05 1.279167175292969 1.422637939453125 1.1444091796875e-05 3.177520751953125 1.1444091796875e-05 Z"/></g></g><text class="b" transform="translate(66.355 324.712)"><tspan x="0" y="0">Google Playstore</tspan></text></g><path class="c" d="M6.471,2,21.457,16.879l4.109-4.109L7.4,2.281A1.988,1.988,0,0,0,6.471,2Zm-1.254.692A1.706,1.706,0,0,0,5,3.535V32.449a1.556,1.556,0,0,0,.13.627L20.462,17.852Zm21.6,10.791-4.39,4.368L26.82,22.2l5.363-3.071a1.364,1.364,0,0,0,.022-2.53C31.748,16.351,28.356,14.375,26.82,13.483Zm-5.363,5.342L6.341,33.812a1.7,1.7,0,0,0,.779-.216l12.565-7.266,5.9-3.4Z" transform="translate(1401.209 582.88)"/></g></svg>